<svg width="600" height="400" viewBox="0 0 600 400" fill="none" xmlns="http://www.w3.org/2000/svg">
  <rect width="600" height="400" rx="12" fill="#F1F5F9"/>
  
  <!-- Background Elements -->
  <circle cx="100" cy="50" r="80" fill="#E2E8F0"/>
  <circle cx="500" cy="350" r="100" fill="#E2E8F0"/>
  <circle cx="450" cy="80" r="40" fill="#E2E8F0"/>
  
  <!-- Photo Frame Group -->
  <g transform="translate(200, 100)">
    <!-- Photo Frame 1 -->
    <rect x="0" y="0" width="120" height="160" rx="8" fill="white" stroke="#CBD5E1" stroke-width="3"/>
    <rect x="10" y="10" width="100" height="100" rx="4" fill="#4F46E5" opacity="0.2"/>
    <circle cx="40" cy="40" r="20" fill="#4F46E5" opacity="0.5"/>
    <rect x="10" y="120" width="60" height="8" rx="4" fill="#CBD5E1"/>
    <rect x="10" y="135" width="40" height="8" rx="4" fill="#CBD5E1"/>
    
    <!-- Photo Frame 2 -->
    <rect x="80" y="40" width="120" height="160" rx="8" fill="white" stroke="#CBD5E1" stroke-width="3" transform="rotate(-8 80 40)"/>
    <rect x="90" y="50" width="100" height="100" rx="4" fill="#0EA5E9" opacity="0.2" transform="rotate(-8 90 50)"/>
    <circle cx="130" cy="80" r="20" fill="#0EA5E9" opacity="0.5" transform="rotate(-8 130 80)"/>
    <rect x="90" y="160" width="60" height="8" rx="4" fill="#CBD5E1" transform="rotate(-8 90 160)"/>
    <rect x="90" y="175" width="40" height="8" rx="4" fill="#CBD5E1" transform="rotate(-8 90 175)"/>
    
    <!-- Photo Frame 3 -->
    <rect x="-40" y="80" width="120" height="160" rx="8" fill="white" stroke="#CBD5E1" stroke-width="3" transform="rotate(12 -40 80)"/>
    <rect x="-30" y="90" width="100" height="100" rx="4" fill="#10B981" opacity="0.2" transform="rotate(12 -30 90)"/>
    <circle cx="10" cy="120" r="20" fill="#10B981" opacity="0.5" transform="rotate(12 10 120)"/>
    <rect x="-30" y="200" width="60" height="8" rx="4" fill="#CBD5E1" transform="rotate(12 -30 200)"/>
    <rect x="-30" y="215" width="40" height="8" rx="4" fill="#CBD5E1" transform="rotate(12 -30 215)"/>
  </g>
  
  <!-- Magnifying Glass -->
  <g transform="translate(350, 220)">
    <circle cx="0" cy="0" r="40" fill="white" stroke="#4F46E5" stroke-width="8"/>
    <line x1="30" y1="30" x2="60" y2="60" stroke="#4F46E5" stroke-width="8" stroke-linecap="round"/>
    
    <!-- Face Icon -->
    <circle cx="0" cy="0" r="15" fill="none" stroke="#4F46E5" stroke-width="3"/>
    <circle cx="-8" cy="-5" r="3" fill="#4F46E5"/>
    <circle cx="8" cy="-5" r="3" fill="#4F46E5"/>
    <path d="M-8 8C-8 8 -4 12 0 12C4 12 8 8 8 8" stroke="#4F46E5" stroke-width="3" stroke-linecap="round"/>
  </g>
</svg> 