<svg width="120" height="120" viewBox="0 0 120 120" fill="none" xmlns="http://www.w3.org/2000/svg">
  <circle cx="60" cy="60" r="60" fill="#F1F5F9"/>
  
  <g transform="translate(30, 25)">
    <!-- Photo Frame -->
    <rect x="0" y="0" width="60" height="70" rx="4" fill="white" stroke="#CBD5E1" stroke-width="2"/>
    <rect x="5" y="5" width="50" height="40" rx="2" fill="#E2E8F0"/>
    
    <!-- Question Mark -->
    <path d="M30 25C30 25 30 18 24 18C18 18 18 25 24 25C30 25 30 32 24 32" stroke="#94A3B8" stroke-width="3" stroke-linecap="round" stroke-linejoin="round"/>
    <circle cx="24" cy="40" r="2" fill="#94A3B8"/>
    
    <!-- Metadata Lines -->
    <rect x="5" y="55" width="30" height="4" rx="2" fill="#E2E8F0"/>
    <rect x="5" y="62" width="20" height="3" rx="1.5" fill="#E2E8F0"/>
  </g>
  
  <!-- Search Icon with X -->
  <g transform="translate(75, 75)">
    <circle cx="0" cy="0" r="15" fill="white" stroke="#94A3B8" stroke-width="2"/>
    <line x1="8" y1="8" x2="18" y2="18" stroke="#94A3B8" stroke-width="2" stroke-linecap="round"/>
    <line x1="2" y1="-2" x2="-2" y2="2" transform="translate(10 10)" stroke="#EF4444" stroke-width="2" stroke-linecap="round"/>
    <line x1="2" y1="2" x2="-2" y2="-2" transform="translate(10 10)" stroke="#EF4444" stroke-width="2" stroke-linecap="round"/>
  </g>
</svg> 